HIERARCHY
ROOT pelvis
{
	OFFSET -0.274455 -20.661295 3.604011
	CHANNELS 6 Xposition Yposition Zposition Zrotation Yrotation Xrotation
	JOINT left_hip
	{
		OFFSET 5.897982 -8.061495 -1.757422
		CHANNELS 3 Zrotation Yrotation Xrotation
		JOINT left_knee
		{
			OFFSET 4.235924 -39.106949 0.479504
			CHANNELS 3 Zrotation Yrotation Xrotation
			JOINT left_ankle
			{
				OFFSET -1.520927 -42.960662 -3.965739
				CHANNELS 3 Zrotation Yrotation Xrotation
				JOINT left_foot
				{
					OFFSET 4.043329 -5.887061 11.600092
					CHANNELS 3 Zrotation Yrotation Xrotation
					End Site
					{
						OFFSET 0.000000 0.000000 0.000000
					}
				}
			}
		}
	}
	JOINT right_hip
	{
		OFFSET -6.126015 -9.021893 -0.948572
		CHANNELS 3 Zrotation Yrotation Xrotation
		JOINT right_knee
		{
			OFFSET -4.227982 -38.728371 -1.113714
			CHANNELS 3 Zrotation Yrotation Xrotation
			JOINT right_ankle
			{
				OFFSET 1.814831 -42.098404 -3.837930
				CHANNELS 3 Zrotation Yrotation Xrotation
				JOINT right_foot
				{
					OFFSET -3.449752 -5.732798 12.435362
					CHANNELS 3 Zrotation Yrotation Xrotation
					End Site
					{
						OFFSET 0.000000 0.000000 0.000000
					}
				}
			}
		}
	}
	JOINT spine1
	{
		OFFSET 0.510549 12.361641 -4.128883
		CHANNELS 3 Zrotation Yrotation Xrotation
		JOINT spine2
		{
			OFFSET 0.267189 12.109670 2.145909
			CHANNELS 3 Zrotation Yrotation Xrotation
			JOINT spine3
			{
				OFFSET -0.186527 4.655315 0.403473
				CHANNELS 3 Zrotation Yrotation Xrotation
				JOINT neck
				{
					OFFSET -1.172262 18.310058 -3.700787
					CHANNELS 3 Zrotation Yrotation Xrotation
					JOINT head
					{
						OFFSET 0.972357 6.653512 4.938569
						CHANNELS 3 Zrotation Yrotation Xrotation
						End Site
						{
							OFFSET 0.000000 0.000000 0.000000
						}
					}
				}
				JOINT left_collar
				{
					OFFSET 6.079941 10.614215 -2.889636
					CHANNELS 3 Zrotation Yrotation Xrotation
					JOINT left_shoulder
					{
						OFFSET 11.011587 4.001903 -1.364555
						CHANNELS 3 Zrotation Yrotation Xrotation
						JOINT left_elbow
						{
							OFFSET 24.110469 -1.090622 -2.086970
							CHANNELS 3 Zrotation Yrotation Xrotation
							JOINT left_wrist
							{
								OFFSET 25.343057 1.217053 -0.785212
								CHANNELS 3 Zrotation Yrotation Xrotation
								JOINT left_index1
								{
									OFFSET 9.762576 -1.051653 2.008870
									CHANNELS 3 Zrotation Yrotation Xrotation
									JOINT left_index2
									{
										OFFSET 3.042251 0.163841 0.352468
										CHANNELS 3 Zrotation Yrotation Xrotation
										JOINT left_index3
										{
											OFFSET 2.139545 -0.257041 0.075826
											CHANNELS 3 Zrotation Yrotation Xrotation
											End Site
											{
												OFFSET 0.000000 0.000000 0.000000
											}
										}
									}
								}
								JOINT left_middle1
								{
									OFFSET 10.494204 -0.755202 -0.215392
									CHANNELS 3 Zrotation Yrotation Xrotation
									JOINT left_middle2
									{
										OFFSET 2.939913 0.038615 -0.338261
										CHANNELS 3 Zrotation Yrotation Xrotation
										JOINT left_middle3
										{
											OFFSET 2.253731 -0.219119 -0.302851
											CHANNELS 3 Zrotation Yrotation Xrotation
											End Site
											{
												OFFSET 0.000000 0.000000 0.000000
											}
										}
									}
								}
								JOINT left_pinky1
								{
									OFFSET 8.099493 -1.395786 -4.122976
									CHANNELS 3 Zrotation Yrotation Xrotation
									JOINT left_pinky2
									{
										OFFSET 1.588494 -0.022075 -1.022052
										CHANNELS 3 Zrotation Yrotation Xrotation
										JOINT left_pinky3
										{
											OFFSET 1.569226 -0.137738 -0.932253
											CHANNELS 3 Zrotation Yrotation Xrotation
											End Site
											{
												OFFSET 0.000000 0.000000 0.000000
											}
										}
									}
								}
								JOINT left_ring1
								{
									OFFSET 9.363512 -0.947237 -2.479475
									CHANNELS 3 Zrotation Yrotation Xrotation
									JOINT left_ring2
									{
										OFFSET 2.718245 0.093336 -0.335961
										CHANNELS 3 Zrotation Yrotation Xrotation
										JOINT left_ring3
										{
											OFFSET 2.196763 -0.191392 -0.555586
											CHANNELS 3 Zrotation Yrotation Xrotation
											End Site
											{
												OFFSET 0.000000 0.000000 0.000000
											}
										}
									}
								}
								JOINT left_thumb1
								{
									OFFSET 3.908524 -2.187312 2.620754
									CHANNELS 3 Zrotation Yrotation Xrotation
									JOINT left_thumb2
									{
										OFFSET 1.692896 0.313464 2.397247
										CHANNELS 3 Zrotation Yrotation Xrotation
										JOINT left_thumb3
										{
											OFFSET 2.049485 -0.238407 1.456016
											CHANNELS 3 Zrotation Yrotation Xrotation
											End Site
											{
												OFFSET 0.000000 0.000000 0.000000
											}
										}
									}
								}
							}
						}
					}
				}
				JOINT right_collar
				{
					OFFSET -6.973469 10.410002 -3.155909
					CHANNELS 3 Zrotation Yrotation Xrotation
					JOINT right_shoulder
					{
						OFFSET -9.927595 4.102343 -0.377008
						CHANNELS 3 Zrotation Yrotation Xrotation
						JOINT right_elbow
						{
							OFFSET -24.413272 -0.970555 -2.817137
							CHANNELS 3 Zrotation Yrotation Xrotation
							JOINT right_wrist
							{
								OFFSET -25.669040 0.876510 -0.796829
								CHANNELS 3 Zrotation Yrotation Xrotation
								JOINT right_index1
								{
									OFFSET -9.722435 -0.868763 2.470782
									CHANNELS 3 Zrotation Yrotation Xrotation
									JOINT right_index2
									{
										OFFSET -3.153576 0.252305 0.236635
										CHANNELS 3 Zrotation Yrotation Xrotation
										JOINT right_index3
										{
											OFFSET -2.183579 -0.214615 -0.049470
											CHANNELS 3 Zrotation Yrotation Xrotation
											End Site
											{
												OFFSET 0.000000 0.000000 0.000000
											}
										}
									}
								}
								JOINT right_middle1
								{
									OFFSET -10.536858 -0.498666 0.083143
									CHANNELS 3 Zrotation Yrotation Xrotation
									JOINT right_middle2
									{
										OFFSET -2.979276 0.139778 -0.369162
										CHANNELS 3 Zrotation Yrotation Xrotation
										JOINT right_middle3
										{
											OFFSET -2.260730 -0.173198 -0.351342
											CHANNELS 3 Zrotation Yrotation Xrotation
											End Site
											{
												OFFSET 0.000000 0.000000 0.000000
											}
										}
									}
								}
								JOINT right_pinky1
								{
									OFFSET -8.227848 -1.284248 -3.981338
									CHANNELS 3 Zrotation Yrotation Xrotation
									JOINT right_pinky2
									{
										OFFSET -1.576650 -0.057440 -1.066747
										CHANNELS 3 Zrotation Yrotation Xrotation
										JOINT right_pinky3
										{
											OFFSET -1.561792 -0.148589 -0.963283
											CHANNELS 3 Zrotation Yrotation Xrotation
											End Site
											{
												OFFSET 0.000000 0.000000 0.000000
											}
										}
									}
								}
								JOINT right_ring1
								{
									OFFSET -9.459417 -0.732482 -2.317409
									CHANNELS 3 Zrotation Yrotation Xrotation
									JOINT right_ring2
									{
										OFFSET -2.727182 0.188709 -0.432246
										CHANNELS 3 Zrotation Yrotation Xrotation
										JOINT right_ring3
										{
											OFFSET -2.207611 -0.169508 -0.658823
											CHANNELS 3 Zrotation Yrotation Xrotation
											End Site
											{
												OFFSET 0.000000 0.000000 0.000000
											}
										}
									}
								}
								JOINT right_thumb1
								{
									OFFSET -3.639916 -2.134544 3.028476
									CHANNELS 3 Zrotation Yrotation Xrotation
									JOINT right_thumb2
									{
										OFFSET -1.643028 0.114594 2.528374
										CHANNELS 3 Zrotation Yrotation Xrotation
										JOINT right_thumb3
										{
											OFFSET -2.050698 -0.449530 1.536576
											CHANNELS 3 Zrotation Yrotation Xrotation
											End Site
											{
												OFFSET 0.000000 0.000000 0.000000
											}
										}
									}
								}
							}
						}
					}
				}
			}
		}
	}
}
MOTION
Frames: 5
Frame Time: 0.033333
-2.771108 87.732948 -43.196653 -91.916875 87.285716 -93.760483 6.034239 1.917702 5.003866 -2.807960 -12.643163 5.078551 7.170737 23.263595 -15.984868 0.000000 0.000000 0.000000 -10.169147 -9.930480 5.213741 11.858440 0.791179 5.298222 0.880045 -14.726684 -10.108092 0.000000 0.000000 0.000000 9.243432 -3.184455 8.181617 -1.436163 -5.933968 -16.444140 -2.260278 1.450755 15.444846 -2.583471 -1.108090 1.853063 2.879702 4.502993 -2.111695 -8.000403 0.123476 -6.671246 -4.658398 -0.016699 -11.131981 7.593076 6.413173 -5.054009 24.793392 -17.300398 20.948306 -23.703990 3.695559 5.717980 -43.457328 -1.176958 7.020968 -10.564232 -5.690603 -5.016601 -30.449090 1.028800 -7.210480 -40.472356 0.119635 -8.638027 -19.366250 -5.374333 -0.192803 -33.066759 -18.151517 -21.725087 -28.530483 -6.643573 -10.882089 -3.825712 -4.209091 -21.060487 -36.116796 -7.082321 -6.106953 -35.336047 -8.344046 -15.321775 -20.788305 -9.227919 -8.528551 1.813288 16.108208 49.349248 2.533913 2.200045 -28.598284 -14.506176 6.617648 30.042897 0.112327 -0.453672 -4.363453 3.391533 -2.229640 -22.272789 -6.457446 5.428521 3.638338 -16.515837 16.448513 37.794449 23.703990 -3.695559 5.717980 43.457328 1.176958 7.020968 10.564232 5.690603 -5.016601 30.449090 -1.028800 -7.210480 40.472356 -0.119635 -8.638027 19.366250 5.374333 -0.192803 33.066759 18.151517 -21.725087 28.530483 6.643573 -10.882089 3.825712 4.209091 -21.060487 36.116796 7.082321 -6.106953 35.336047 8.344046 -15.321775 20.788305 9.227919 -8.528551 -1.813288 -16.108208 49.349248 -2.533913 -2.200045 -28.598284 14.506176 -6.617648 30.042897 
-3.074496 87.563297 -42.552618 -29.579027 87.179150 -29.725043 5.180757 2.191366 3.581209 -3.482137 -10.270173 4.509040 8.092285 23.313274 -15.082267 0.000000 0.000000 0.000000 -10.718521 -8.394920 1.136376 11.627440 -0.556189 7.838557 -0.831969 -13.110436 -10.801851 0.000000 0.000000 0.000000 6.111077 -2.735374 6.824540 -1.399724 -3.987425 -16.915513 -1.260163 1.237862 16.020335 -1.232014 -0.072534 1.518689 2.474984 3.863366 -1.858235 -7.331251 -0.364222 -6.630497 -4.803425 1.560547 -9.754827 7.732644 5.855328 -6.183737 24.522227 -16.864144 20.697337 -23.703990 3.695559 5.717980 -43.457328 -1.176958 7.020968 -10.564232 -5.690603 -5.016601 -30.449090 1.028800 -7.210480 -40.472356 0.119635 -8.638027 -19.366250 -5.374333 -0.192803 -33.066759 -18.151517 -21.725087 -28.530483 -6.643573 -10.882089 -3.825712 -4.209091 -21.060487 -36.116796 -7.082321 -6.106953 -35.336047 -8.344046 -15.321775 -20.788305 -9.227919 -8.528551 1.813288 16.108208 49.349248 2.533913 2.200045 -28.598284 -14.506176 6.617648 30.042897 0.713430 0.237744 -4.895879 3.531134 -2.252551 -20.616379 -6.845003 5.157862 2.624909 -16.499431 16.618886 38.068844 23.703990 -3.695559 5.717980 43.457328 1.176958 7.020968 10.564232 5.690603 -5.016601 30.449090 -1.028800 -7.210480 40.472356 -0.119635 -8.638027 19.366250 5.374333 -0.192803 33.066759 18.151517 -21.725087 28.530483 6.643573 -10.882089 3.825712 4.209091 -21.060487 36.116796 7.082321 -6.106953 35.336047 8.344046 -15.321775 20.788305 9.227919 -8.528551 -1.813288 -16.108208 49.349248 -2.533913 -2.200045 -28.598284 14.506176 -6.617648 30.042897 
-3.089924 87.563667 -42.551616 -28.388681 87.207062 -28.504768 5.110003 2.176878 3.549158 -3.511378 -10.201964 4.514964 8.099787 23.294513 -15.170225 0.000000 0.000000 0.000000 -10.781443 -8.396027 1.053321 11.608521 -0.542525 7.912903 -0.754345 -13.160712 -10.836584 0.000000 0.000000 0.000000 6.002163 -2.699686 6.800287 -1.385542 -3.988294 -16.947814 -1.253379 1.193058 16.061892 -1.268913 -0.122538 1.465408 2.507573 3.906992 -1.762670 -7.340514 -0.365206 -6.586097 -4.783856 1.548081 -9.787447 7.750105 5.799829 -6.236833 24.463047 -16.803852 20.723414 -23.703990 3.695559 5.717980 -43.457328 -1.176958 7.020968 -10.564232 -5.690603 -5.016601 -30.449090 1.028800 -7.210480 -40.472356 0.119635 -8.638027 -19.366250 -5.374333 -0.192803 -33.066759 -18.151517 -21.725087 -28.530483 -6.643573 -10.882089 -3.825712 -4.209091 -21.060487 -36.116796 -7.082321 -6.106953 -35.336047 -8.344046 -15.321775 -20.788305 -9.227919 -8.528551 1.813288 16.108208 49.349248 2.533913 2.200045 -28.598284 -14.506176 6.617648 30.042897 0.786359 0.228524 -4.850129 3.536736 -2.228504 -20.633734 -6.943440 5.161241 2.576021 -16.437117 16.726770 38.106348 23.703990 -3.695559 5.717980 43.457328 1.176958 7.020968 10.564232 5.690603 -5.016601 30.449090 -1.028800 -7.210480 40.472356 -0.119635 -8.638027 19.366250 5.374333 -0.192803 33.066759 18.151517 -21.725087 28.530483 6.643573 -10.882089 3.825712 4.209091 -21.060487 36.116796 7.082321 -6.106953 35.336047 8.344046 -15.321775 20.788305 9.227919 -8.528551 -1.813288 -16.108208 49.349248 -2.533913 -2.200045 -28.598284 14.506176 -6.617648 30.042897 
-3.092575 87.571115 -42.559859 -28.436545 87.195831 -28.560289 5.128509 2.205259 3.547278 -3.537117 -10.220060 4.531682 8.058367 23.273541 -15.210823 0.000000 0.000000 0.000000 -10.777346 -8.396301 1.053017 11.587765 -0.564029 7.914176 -0.705808 -13.168371 -10.920178 0.000000 0.000000 0.000000 6.017427 -2.703156 6.818400 -1.385932 -3.980636 -16.987456 -1.245504 1.206936 16.082692 -1.305017 -0.103134 1.502859 2.500143 3.895114 -1.802527 -7.333697 -0.349368 -6.607427 -4.825972 1.511179 -9.785624 7.809268 5.770414 -6.173816 24.411689 -16.784659 20.812580 -23.703990 3.695559 5.717980 -43.457328 -1.176958 7.020968 -10.564232 -5.690603 -5.016601 -30.449090 1.028800 -7.210480 -40.472356 0.119635 -8.638027 -19.366250 -5.374333 -0.192803 -33.066759 -18.151517 -21.725087 -28.530483 -6.643573 -10.882089 -3.825712 -4.209091 -21.060487 -36.116796 -7.082321 -6.106953 -35.336047 -8.344046 -15.321775 -20.788305 -9.227919 -8.528551 1.813288 16.108208 49.349248 2.533913 2.200045 -28.598284 -14.506176 6.617648 30.042897 0.789713 0.224446 -4.877751 3.543785 -2.220322 -20.667610 -6.982987 5.196867 2.550901 -16.400970 16.711228 38.144973 23.703990 -3.695559 5.717980 43.457328 1.176958 7.020968 10.564232 5.690603 -5.016601 30.449090 -1.028800 -7.210480 40.472356 -0.119635 -8.638027 19.366250 5.374333 -0.192803 33.066759 18.151517 -21.725087 28.530483 6.643573 -10.882089 3.825712 4.209091 -21.060487 36.116796 7.082321 -6.106953 35.336047 8.344046 -15.321775 20.788305 9.227919 -8.528551 -1.813288 -16.108208 49.349248 -2.533913 -2.200045 -28.598284 14.506176 -6.617648 30.042897 
-3.088651 87.567453 -42.580539 -29.937689 87.217800 -30.086424 5.201135 2.281270 3.509663 -3.559139 -10.215046 4.642089 8.090646 23.165123 -15.192446 0.000000 0.000000 0.000000 -10.689084 -8.392835 1.149729 11.511417 -0.577295 7.804651 -0.725814 -13.200621 -10.871885 0.000000 0.000000 0.000000 6.106569 -2.712078 6.791605 -1.375876 -4.011907 -16.833744 -1.275743 1.216368 15.962160 -1.365871 -0.011043 1.478469 2.461427 3.865037 -1.782919 -7.361201 -0.344717 -6.631263 -4.825173 1.486576 -9.823921 7.720839 5.675198 -6.264220 24.420451 -16.884488 20.799952 -23.703990 3.695559 5.717980 -43.457328 -1.176958 7.020968 -10.564232 -5.690603 -5.016601 -30.449090 1.028800 -7.210480 -40.472356 0.119635 -8.638027 -19.366250 -5.374333 -0.192803 -33.066759 -18.151517 -21.725087 -28.530483 -6.643573 -10.882089 -3.825712 -4.209091 -21.060487 -36.116796 -7.082321 -6.106953 -35.336047 -8.344046 -15.321775 -20.788305 -9.227919 -8.528551 1.813288 16.108208 49.349248 2.533913 2.200045 -28.598284 -14.506176 6.617648 30.042897 0.838614 0.227945 -4.891174 3.485746 -2.227059 -20.718453 -6.971705 5.174929 2.462019 -16.461592 16.867977 38.260263 23.703990 -3.695559 5.717980 43.457328 1.176958 7.020968 10.564232 5.690603 -5.016601 30.449090 -1.028800 -7.210480 40.472356 -0.119635 -8.638027 19.366250 5.374333 -0.192803 33.066759 18.151517 -21.725087 28.530483 6.643573 -10.882089 3.825712 4.209091 -21.060487 36.116796 7.082321 -6.106953 35.336047 8.344046 -15.321775 20.788305 9.227919 -8.528551 -1.813288 -16.108208 49.349248 -2.533913 -2.200045 -28.598284 14.506176 -6.617648 30.042897 
